<?xml version="1.0" encoding="UTF-8"?>
<svg id="Layer_2" data-name="Layer 2" xmlns="http://www.w3.org/2000/svg" viewBox="0 0 1211.14 149.99">
  <defs>
    <style>
      .cls-1 {
        stroke-width: 0px;
      }
    </style>
  </defs>
  <g id="Layer_1-2" data-name="Layer 1">
    <g>
      <g>
        <path class="cls-1" d="M303.12,49.2v66.3h-19.65V49.2c0-.6-.45-1.05-1.05-1.05h-46.95c-.6,0-1.05.45-1.05,1.05v66.3h-19.65V0h19.65v28.5h48c11.25,0,20.7,9.3,20.7,20.7Z"/>
        <path class="cls-1" d="M403.17,28.5v66.3c0,11.4-9.3,20.7-20.7,20.7h-46.95c-11.55,0-20.7-9.3-20.7-20.7V28.5h19.65v66.3c0,.6.45,1.05,1.05,1.05h46.95c.6,0,1.05-.45,1.05-1.05V28.5h19.65Z"/>
        <path class="cls-1" d="M438.72,0v94.8c0,.6.3,1.05.9,1.05h17.55v19.65h-17.55c-11.4,0-20.7-9.3-20.7-20.7V0h19.8Z"/>
        <path class="cls-1" d="M559.17,49.2v45.6c0,11.4-9.3,20.7-20.7,20.7h-48v34.5h-19.65V28.5h67.65c11.4,0,20.7,9.3,20.7,20.7ZM539.52,49.2c0-.6-.45-1.05-1.05-1.05h-46.95c-.6,0-1.05.45-1.05,1.05v45.6c0,.6.45,1.05,1.05,1.05h46.95c.6,0,1.05-.45,1.05-1.05v-45.6Z"/>
      </g>
      <g>
        <g>
          <path class="cls-1" d="M661.09,49.2v66.3h-67.65c-11.4,0-20.7-9.3-20.7-20.7v-32.7h68.7v-12.9c0-.6-.45-1.05-1.05-1.05h-67.65v-19.65h67.65c11.4,0,20.7,9.3,20.7,20.7ZM641.45,81.9h-49.05v12.9c0,.6.45,1.05,1.05,1.05h48v-13.95Z"/>
          <path class="cls-1" d="M765.19,49.2v66.3h-67.65c-11.4,0-20.7-9.3-20.7-20.7v-32.7h68.7v-12.9c0-.6-.45-1.05-1.05-1.05h-67.65v-19.65h67.65c11.4,0,20.7,9.3,20.7,20.7ZM745.54,81.9h-49.05v12.9c0,.6.45,1.05,1.05,1.05h48v-13.95Z"/>
          <path class="cls-1" d="M868.24,49.2v66.3h-19.65V49.2c0-.6-.45-1.05-1.05-1.05h-46.95c-.6,0-1.05.45-1.05,1.05v66.3h-19.65V28.5h67.65c11.4,0,20.7,9.3,20.7,20.7Z"/>
        </g>
        <g>
          <path class="cls-1" d="M972.64,49.2v66.3h-19.65V49.2c0-.6-.45-1.05-1.05-1.05h-46.95c-.6,0-1.05.45-1.05,1.05v66.3h-19.65V0h19.65v28.5h48c11.25,0,20.7,9.3,20.7,20.7Z"/>
          <path class="cls-1" d="M1072.69,28.5v66.3c0,11.4-9.3,20.7-20.7,20.7h-46.95c-11.55,0-20.7-9.3-20.7-20.7V28.5h19.65v66.3c0,.6.45,1.05,1.05,1.05h46.95c.6,0,1.05-.45,1.05-1.05V28.5h19.65Z"/>
          <path class="cls-1" d="M1108.09,0v19.8h-19.65V0h19.65ZM1088.45,28.5h19.65v87h-19.65V28.5Z"/>
          <path class="cls-1" d="M1211.14,52.95h-19.65v-3.75c0-.6-.45-1.05-1.05-1.05h-46.95c-.6,0-1.05.45-1.05,1.05v12c0,.6.45.9,1.05.9h46.95c11.55,0,20.7,9.3,20.7,20.7v12c0,11.4-9.15,20.7-20.7,20.7h-46.95c-11.4,0-20.7-9.3-20.7-20.7v-3.75h19.65v3.75c0,.6.45,1.05,1.05,1.05h46.95c.6,0,1.05-.45,1.05-1.05v-12c0-.6-.45-.9-1.05-.9h-46.95c-11.4,0-20.7-9.3-20.7-20.7v-12c0-11.4,9.3-20.7,20.7-20.7h46.95c11.55,0,20.7,9.3,20.7,20.7v3.75Z"/>
        </g>
      </g>
      <g>
        <path class="cls-1" d="M83.87,90.73c1.05,2.78,1.97,5.31,3.02,7.81.12.29.94.55,1.44.55,7.33.04,14.66.05,22,.01,2.57-.01,4.89.5,6.88,1.87,3.25,2.23,3.97,5.17,3.12,8.37-.84,3.16-3.29,5.22-7.22,5.92-1.06.19-2.17.22-3.26.22-26.33.01-52.66,0-78.98.02-4.25,0-7.71-1.11-9.61-4.38-3.09-5.32.53-11.9,8.66-11.98,7.47-.07,14.95-.04,22.42,0,1.08,0,1.6-.22,1.9-1.11.8-2.36,1.74-4.68,2.69-7.2-.75-.04-1.34-.09-1.92-.09-11.33,0-22.66.01-33.99,0-9.3-.02-16.99-4.29-19.74-11.17-.77-1.93-1.18-4.05-1.19-6.08C-.02,54.72,0,35.98.02,17.23.04,9.08,5.88,2.67,15.14.65c1.86-.41,3.85-.61,5.78-.61C53.96,0,87,0,120.04.01c11.64,0,20.61,7.08,20.67,16.63.13,19.18.11,38.35,0,57.53-.05,7.96-6.32,14.26-15.66,16.07-1.79.35-3.67.46-5.52.47-11.24.04-22.47.02-33.71.02h-1.96ZM20.18,16.51v57.72h100.5V16.51H20.18Z"/>
        <path class="cls-1" d="M150.98,57.72c0-14.92-.02-29.84.01-44.76.01-4.63,2.1-8.46,7.02-10.98,2.63-1.35,5.58-1.96,8.69-1.97,6.19-.02,12.38-.01,18.57,0,9.22.02,15.87,5.31,15.88,12.86.05,29.92.05,59.84,0,89.76-.01,7.62-6.57,12.85-15.82,12.86-6.19,0-12.38.02-18.57,0-3.15-.01-6.09-.66-8.82-2-4.43-2.18-6.39-5.56-6.88-9.59-.21-1.74-.08-3.51-.08-5.27,0-13.63,0-27.26,0-40.89ZM175.99,94.92c5.88.02,10.1-3.37,10.17-8.16.07-4.83-4.16-8.37-10.04-8.43-5.82-.05-10.18,3.51-10.17,8.32,0,4.8,4.2,8.25,10.05,8.27ZM176.07,16.47s0-.02,0-.03c-1.62,0-3.23,0-4.85,0-.24,0-.47.05-.71.08-2.81.32-4.4,1.69-4.55,3.92-.14,2.13,1.39,3.95,4.17,4.14,3.81.26,7.69.3,11.5.06,3.03-.19,4.62-1.96,4.51-4.16-.12-2.31-1.86-3.78-4.95-3.99-1.7-.12-3.42-.02-5.13-.02ZM175.99,41.25c1.71,0,3.42.04,5.13,0,2.99-.08,4.94-1.67,5.03-4.03.09-2.29-1.86-4.09-4.84-4.18-3.51-.11-7.03-.11-10.54,0-2.99.1-4.92,1.89-4.81,4.19.12,2.39,2.03,3.94,5.04,4.02,1.66.05,3.32,0,4.99,0Z"/>
      </g>
    </g>
  </g>
</svg>