<?xml version="1.0" encoding="UTF-8"?>
<svg id="Layer_2" data-name="Layer 2" xmlns="http://www.w3.org/2000/svg" viewBox="0 0 638.39 245.69">
  <defs>
    <style>
      .cls-1 {
        stroke-width: 0px;
      }
    </style>
  </defs>
  <g id="Layer_1-2" data-name="Layer 1">
    <g>
      <g>
        <path class="cls-1" d="M362.2,49.2v66.3h-21.19V49.2c0-.6-.49-1.05-1.13-1.05h-50.62c-.65,0-1.13.45-1.13,1.05v66.3h-21.19V0h21.19v28.5h51.75c12.13,0,22.32,9.3,22.32,20.7Z"/>
        <path class="cls-1" d="M470.08,28.5v66.3c0,11.4-10.03,20.7-22.32,20.7h-50.62c-12.45,0-22.32-9.3-22.32-20.7V28.5h21.19v66.3c0,.6.48,1.05,1.13,1.05h50.62c.65,0,1.13-.45,1.13-1.05V28.5h21.19Z"/>
        <path class="cls-1" d="M508.41,0v94.8c0,.6.32,1.05.97,1.05h18.92v19.65h-18.92c-12.29,0-22.32-9.3-22.32-20.7V0h21.35Z"/>
        <path class="cls-1" d="M638.28,49.2v45.6c0,11.4-10.03,20.7-22.32,20.7h-51.75v34.5h-21.19V28.5h72.94c12.29,0,22.32,9.3,22.32,20.7ZM617.09,49.2c0-.6-.49-1.05-1.13-1.05h-50.62c-.65,0-1.13.45-1.13,1.05v45.6c0,.6.48,1.05,1.13,1.05h50.62c.65,0,1.13-.45,1.13-1.05v-45.6Z"/>
      </g>
      <g>
        <g>
          <path class="cls-1" d="M88.35,179.39v66.3H20.7c-11.4,0-20.7-9.3-20.7-20.7v-32.7h68.7v-12.9c0-.6-.45-1.05-1.05-1.05H0v-19.65h67.65c11.4,0,20.7,9.3,20.7,20.7ZM68.7,212.09H19.65v12.9c0,.6.45,1.05,1.05,1.05h48v-13.95Z"/>
          <path class="cls-1" d="M192.44,179.39v66.3h-67.65c-11.4,0-20.7-9.3-20.7-20.7v-32.7h68.7v-12.9c0-.6-.45-1.05-1.05-1.05h-67.65v-19.65h67.65c11.4,0,20.7,9.3,20.7,20.7ZM172.79,212.09h-49.05v12.9c0,.6.45,1.05,1.05,1.05h48v-13.95Z"/>
          <path class="cls-1" d="M295.49,179.39v66.3h-19.65v-66.3c0-.6-.45-1.05-1.05-1.05h-46.95c-.6,0-1.05.45-1.05,1.05v66.3h-19.65v-87h67.65c11.4,0,20.7,9.3,20.7,20.7Z"/>
        </g>
        <g>
          <path class="cls-1" d="M399.89,179.39v66.3h-19.65v-66.3c0-.6-.45-1.05-1.05-1.05h-46.95c-.6,0-1.05.45-1.05,1.05v66.3h-19.65v-115.49h19.65v28.5h48c11.25,0,20.7,9.3,20.7,20.7Z"/>
          <path class="cls-1" d="M499.94,158.69v66.3c0,11.4-9.3,20.7-20.7,20.7h-46.95c-11.55,0-20.7-9.3-20.7-20.7v-66.3h19.65v66.3c0,.6.45,1.05,1.05,1.05h46.95c.6,0,1.05-.45,1.05-1.05v-66.3h19.65Z"/>
          <path class="cls-1" d="M535.35,130.19v19.8h-19.65v-19.8h19.65ZM515.7,158.69h19.65v87h-19.65v-87Z"/>
          <path class="cls-1" d="M638.39,183.14h-19.65v-3.75c0-.6-.45-1.05-1.05-1.05h-46.95c-.6,0-1.05.45-1.05,1.05v12c0,.6.45.9,1.05.9h46.95c11.55,0,20.7,9.3,20.7,20.7v12c0,11.4-9.15,20.7-20.7,20.7h-46.95c-11.4,0-20.7-9.3-20.7-20.7v-3.75h19.65v3.75c0,.6.45,1.05,1.05,1.05h46.95c.6,0,1.05-.45,1.05-1.05v-12c0-.6-.45-.9-1.05-.9h-46.95c-11.4,0-20.7-9.3-20.7-20.7v-12c0-11.4,9.3-20.7,20.7-20.7h46.95c11.55,0,20.7,9.3,20.7,20.7v3.75Z"/>
        </g>
      </g>
      <g>
        <path class="cls-1" d="M104.55,113.1c1.31,3.47,2.46,6.63,3.76,9.74.15.36,1.18.68,1.8.68,9.14.04,18.28.06,27.42.02,3.21-.01,6.09.63,8.58,2.33,4.06,2.78,4.95,6.44,3.89,10.43-1.05,3.94-4.1,6.51-9,7.38-1.32.23-2.71.27-4.07.28-32.82.01-65.64,0-98.47.03-5.3,0-9.62-1.38-11.98-5.47-3.85-6.64.66-14.84,10.79-14.93,9.32-.08,18.64-.05,27.95,0,1.34,0,1.99-.28,2.37-1.39,1-2.94,2.17-5.84,3.35-8.97-.93-.05-1.66-.11-2.4-.11-14.13,0-28.25.01-42.38-.01-11.59-.02-21.18-5.35-24.6-13.92-.96-2.41-1.48-5.05-1.49-7.58C-.03,68.22,0,44.85.03,21.48.05,11.31,7.33,3.32,18.87.8,21.19.3,23.67.04,26.07.04,67.27,0,108.46,0,149.65.01c14.51,0,25.69,8.83,25.77,20.73.16,23.91.14,47.81,0,71.72-.06,9.92-7.88,17.77-19.53,20.03-2.23.43-4.58.57-6.88.58-14.01.05-28.01.03-42.02.03h-2.44ZM25.16,20.59v71.96h125.29V20.59H25.16Z"/>
        <path class="cls-1" d="M188.22,71.96c0-18.6-.03-37.2.02-55.8.01-5.77,2.62-10.55,8.76-13.69C200.28.78,203.96.02,207.83.01c7.72-.02,15.43-.02,23.15,0,11.5.02,19.78,6.62,19.8,16.03.06,37.3.06,74.6,0,111.89-.02,9.5-8.2,16.03-19.73,16.03-7.72,0-15.43.02-23.15,0-3.93-.01-7.6-.82-10.99-2.5-5.52-2.72-7.97-6.93-8.58-11.96-.26-2.17-.1-4.38-.1-6.57,0-16.99,0-33.99,0-50.98ZM219.39,118.33c7.33.02,12.59-4.2,12.68-10.17.09-6.02-5.18-10.44-12.52-10.51-7.25-.07-12.69,4.38-12.68,10.37,0,5.98,5.24,10.29,12.52,10.31ZM219.5,20.53s0-.02,0-.03c-2.01,0-4.03,0-6.04,0-.29,0-.59.06-.88.1-3.5.4-5.48,2.11-5.67,4.89-.18,2.65,1.73,4.92,5.2,5.16,4.75.33,9.58.37,14.34.07,3.77-.24,5.76-2.44,5.62-5.19-.15-2.88-2.31-4.71-6.17-4.97-2.12-.15-4.26-.03-6.39-.03ZM219.4,51.42c2.13,0,4.27.05,6.4-.01,3.73-.1,6.16-2.09,6.28-5.03.11-2.85-2.32-5.09-6.03-5.21-4.38-.14-8.77-.14-13.14,0-3.73.12-6.13,2.36-6,5.22.14,2.98,2.53,4.91,6.28,5.02,2.07.06,4.15.01,6.22.01Z"/>
      </g>
    </g>
  </g>
</svg>