<?xml version="1.0" encoding="UTF-8"?>
<svg id="Layer_2" data-name="Layer 2" xmlns="http://www.w3.org/2000/svg" viewBox="0 0 1008 398.15">
  <defs>
    <style>
      .cls-1 {
        fill: black;
        stroke-width: 0px;
      }
    </style>
  </defs>
  <g id="Layer_1-2" data-name="Layer 1">
    <g>
      <path class="cls-1" d="m43.83,131.48v87.65H0V0h219.13v131.48h-108.54l101.01,87.65h-66.77l-101.01-87.65Zm0-87.65v43.83h131.48v-43.83H43.83Z"/>
      <path class="cls-1" d="m306.78,131.48v87.65h-43.83V0h219.13v219.13h-43.83v-87.65h-131.48Zm131.48-43.83v-43.83h-131.48v43.83h131.48Z"/>
      <path class="cls-1" d="m745.04,219.13h-219.13l131.48-175.3h-131.48V0h219.13l-131.48,175.3h131.48v43.83Z"/>
      <path class="cls-1" d="m1008,43.83h-219.13V0h219.13v43.83Zm0,87.65h-219.13v-43.83h219.13v43.83Zm0,87.65h-219.13v-43.83h219.13v43.83Z"/>
      <path class="cls-1" d="m30.55,367.61h91.64v-91.64H0v-30.55h152.73v152.73H0v-91.64h30.55v61.09Z"/>
      <path class="cls-1" d="m213.82,245.43v152.73h-30.55v-152.73h30.55Z"/>
      <path class="cls-1" d="m397.09,398.15h-152.73v-152.73h152.73v30.55h-122.18v91.64h91.64v-30.55h-61.09v-30.55h91.64v91.64Z"/>
      <path class="cls-1" d="m458.18,245.43v152.73h-30.55v-152.73h30.55Z"/>
      <path class="cls-1" d="m488.73,245.43h152.73v30.55h-61.09v122.18h-30.55v-122.18h-61.09v-30.55Z"/>
      <path class="cls-1" d="m702.55,337.06v61.09h-30.55v-152.73h152.73v152.73h-30.55v-61.09h-91.64Zm91.64-30.55v-30.55h-91.64v30.55h91.64Z"/>
      <path class="cls-1" d="m1008,398.15h-152.73v-152.73h30.55v122.18h122.18v30.55Z"/>
    </g>
  </g>
</svg>